<svg width="300" height="300" viewBox="0 0 300 300" fill="none" xmlns="http://www.w3.org/2000/svg">
<g clip-path="url(#clip0_238_2)">
<g filter="url(#filter0_dd_238_2)">
<path d="M79.7734 259.783C65.8574 259.783 57.6543 251.287 57.6543 236.785V65.8379C57.6543 51.1895 65.8574 42.6934 79.7734 42.6934C93.6895 42.6934 101.893 51.1895 101.893 65.8379V131.463H197.107V65.8379C197.107 51.1895 205.311 42.6934 219.227 42.6934C233.143 42.6934 241.346 51.1895 241.346 65.8379V236.785C241.346 251.287 233.143 259.783 219.227 259.783C205.311 259.783 197.107 251.287 197.107 236.785V167.938H101.893V236.785C101.893 251.287 93.6895 259.783 79.7734 259.783Z" fill="url(#paint0_linear_238_2)" shape-rendering="crispEdges"/>
</g>
</g>
<defs>
<filter id="filter0_dd_238_2" x="41.6543" y="36.6934" width="215.691" height="249.09" filterUnits="userSpaceOnUse" color-interpolation-filters="sRGB">
<feFlood flood-opacity="0" result="BackgroundImageFix"/>
<feColorMatrix in="SourceAlpha" type="matrix" values="0 0 0 0 0 0 0 0 0 0 0 0 0 0 0 0 0 0 127 0" result="hardAlpha"/>
<feOffset dy="10"/>
<feGaussianBlur stdDeviation="8"/>
<feComposite in2="hardAlpha" operator="out"/>
<feColorMatrix type="matrix" values="0 0 0 0 0 0 0 0 0 0 0 0 0 0 0 0 0 0 0.2 0"/>
<feBlend mode="normal" in2="BackgroundImageFix" result="effect1_dropShadow_238_2"/>
<feColorMatrix in="SourceAlpha" type="matrix" values="0 0 0 0 0 0 0 0 0 0 0 0 0 0 0 0 0 0 127 0" result="hardAlpha"/>
<feOffset dy="4"/>
<feGaussianBlur stdDeviation="2"/>
<feComposite in2="hardAlpha" operator="out"/>
<feColorMatrix type="matrix" values="0 0 0 0 0 0 0 0 0 0 0 0 0 0 0 0 0 0 0.25 0"/>
<feBlend mode="normal" in2="effect1_dropShadow_238_2" result="effect2_dropShadow_238_2"/>
<feBlend mode="normal" in="SourceGraphic" in2="effect2_dropShadow_238_2" result="shape"/>
</filter>
<linearGradient id="paint0_linear_238_2" x1="149.5" y1="-75" x2="149.5" y2="375" gradientUnits="userSpaceOnUse">
<stop stop-color="white"/>
<stop offset="0.9999" stop-color="white" stop-opacity="0.9"/>
<stop offset="1" stop-color="white" stop-opacity="0.8"/>
</linearGradient>
<clipPath id="clip0_238_2">
<rect width="300" height="300" fill="white"/>
</clipPath>
</defs>
</svg>
