<svg width="300" height="300" viewBox="0 0 300 300" fill="none" xmlns="http://www.w3.org/2000/svg">
<g clip-path="url(#clip0_251_847)">
<rect width="300" height="300" rx="8" fill="white"/>
<g clip-path="url(#clip1_251_847)">
<path d="M42.6592 166.427C40.5254 166.427 39.2676 165.124 39.2676 162.9V136.688C39.2676 134.442 40.5254 133.14 42.6592 133.14C44.793 133.14 46.0508 134.442 46.0508 136.688V146.751H60.6504V136.688C60.6504 134.442 61.9082 133.14 64.042 133.14C66.1758 133.14 67.4336 134.442 67.4336 136.688V162.9C67.4336 165.124 66.1758 166.427 64.042 166.427C61.9082 166.427 60.6504 165.124 60.6504 162.9V152.344H46.0508V162.9C46.0508 165.124 44.793 166.427 42.6592 166.427ZM74.9805 166.427C72.8691 166.427 71.5439 165.191 71.5439 163.237C71.5439 162.676 71.7012 161.912 71.9932 161.081L80.8428 136.98C81.7861 134.353 83.3809 133.14 85.9414 133.14C88.5918 133.14 90.1641 134.308 91.1299 136.958L100.024 161.081C100.339 161.957 100.451 162.563 100.451 163.237C100.451 165.102 99.0361 166.427 97.0596 166.427C95.1504 166.427 94.1396 165.551 93.5332 163.439L91.8262 158.318H80.124L78.417 163.372C77.7881 165.528 76.7773 166.427 74.9805 166.427ZM81.6064 153.062H90.2539L85.9639 139.788H85.8066L81.6064 153.062ZM107.616 166.427C105.707 166.427 104.584 165.259 104.584 163.26V137.52C104.584 134.779 106.201 133.14 108.964 133.14C111.322 133.14 112.625 134.128 113.613 136.644L121.654 156.566H121.834L129.853 136.644C130.841 134.15 132.166 133.14 134.547 133.14C137.287 133.14 138.904 134.757 138.904 137.52V163.26C138.904 165.259 137.781 166.427 135.872 166.427C133.963 166.427 132.862 165.259 132.862 163.26V144.123H132.683L124.664 163.731C124.08 165.169 123.182 165.798 121.767 165.798C120.329 165.798 119.386 165.146 118.824 163.754L110.806 144.123H110.626V163.26C110.626 165.259 109.525 166.427 107.616 166.427ZM147.687 166.427C145.553 166.427 144.295 165.124 144.295 162.9V137.115C144.295 134.892 145.553 133.589 147.687 133.589H157.479C164.128 133.589 168.71 138.014 168.71 144.685C168.71 151.333 163.971 155.78 157.143 155.78H151.078V162.9C151.078 165.124 149.82 166.427 147.687 166.427ZM151.078 150.479H155.66C159.546 150.479 161.814 148.413 161.814 144.707C161.814 141.023 159.568 138.957 155.683 138.957H151.078V150.479ZM183.871 166.427C181.737 166.427 180.479 165.124 180.479 162.9V139.204H173.786C171.944 139.204 170.709 138.148 170.709 136.396C170.709 134.645 171.922 133.589 173.786 133.589H193.979C195.82 133.589 197.033 134.645 197.033 136.396C197.033 138.148 195.798 139.204 193.979 139.204H187.263V162.9C187.263 165.124 186.005 166.427 183.871 166.427ZM213.228 166.539C203.614 166.539 197.595 160.115 197.595 149.806C197.595 139.474 203.614 133.027 213.228 133.027C222.818 133.027 228.86 139.474 228.86 149.806C228.86 160.115 222.818 166.539 213.228 166.539ZM213.228 160.879C218.528 160.879 221.92 156.589 221.92 149.806C221.92 143 218.528 138.688 213.228 138.688C207.927 138.688 204.513 143 204.513 149.806C204.513 156.589 207.904 160.879 213.228 160.879ZM236.497 166.427C234.453 166.427 233.24 165.191 233.24 163.035V136.531C233.24 134.375 234.498 133.14 236.654 133.14C238.047 133.14 238.99 133.701 240.023 135.116L254.039 154.702H254.219V136.554C254.219 134.375 255.432 133.14 257.476 133.14C259.52 133.14 260.71 134.375 260.71 136.554V163.125C260.71 165.236 259.52 166.427 257.386 166.427C255.926 166.427 255.027 165.91 253.994 164.473L239.934 144.774H239.731V163.035C239.731 165.191 238.519 166.427 236.497 166.427Z" fill="#313131"/>
</g>
</g>
<defs>
<clipPath id="clip0_251_847">
<rect width="300" height="300" rx="8" fill="white"/>
</clipPath>
<clipPath id="clip1_251_847">
<rect width="302" height="70" fill="white" transform="translate(-1 115)"/>
</clipPath>
</defs>
</svg>
