<svg width="114" height="35" viewBox="0 0 114 35" fill="none" xmlns="http://www.w3.org/2000/svg">
<g clip-path="url(#clip0_83_658)">
<g filter="url(#filter0_d_83_658)">
<path d="M3.32959 26.2134C2.2627 26.2134 1.63379 25.562 1.63379 24.4502V11.3442C1.63379 10.2212 2.2627 9.56982 3.32959 9.56982C4.39648 9.56982 5.02539 10.2212 5.02539 11.3442V16.3755H12.3252V11.3442C12.3252 10.2212 12.9541 9.56982 14.021 9.56982C15.0879 9.56982 15.7168 10.2212 15.7168 11.3442V24.4502C15.7168 25.562 15.0879 26.2134 14.021 26.2134C12.9541 26.2134 12.3252 25.562 12.3252 24.4502V19.1719H5.02539V24.4502C5.02539 25.562 4.39648 26.2134 3.32959 26.2134ZM19.4902 26.2134C18.4346 26.2134 17.772 25.5957 17.772 24.6187C17.772 24.3379 17.8506 23.9561 17.9966 23.5405L22.4214 11.4902C22.8931 10.1763 23.6904 9.56982 24.9707 9.56982C26.2959 9.56982 27.082 10.1538 27.5649 11.479L32.0122 23.5405C32.1694 23.9785 32.2256 24.2817 32.2256 24.6187C32.2256 25.5508 31.5181 26.2134 30.5298 26.2134C29.5752 26.2134 29.0698 25.7754 28.7666 24.7197L27.9131 22.1592H22.062L21.2085 24.686C20.894 25.7642 20.3887 26.2134 19.4902 26.2134ZM22.8032 19.5312H27.127L24.9819 12.894H24.9033L22.8032 19.5312ZM35.8081 26.2134C34.8535 26.2134 34.292 25.6294 34.292 24.6299V11.7598C34.292 10.3896 35.1006 9.56982 36.4819 9.56982C37.6611 9.56982 38.3125 10.064 38.8066 11.3218L42.8271 21.2832H42.917L46.9263 11.3218C47.4204 10.0752 48.083 9.56982 49.2734 9.56982C50.6436 9.56982 51.4521 10.3784 51.4521 11.7598V24.6299C51.4521 25.6294 50.8906 26.2134 49.936 26.2134C48.9814 26.2134 48.4312 25.6294 48.4312 24.6299V15.0615H48.3413L44.332 24.8657C44.04 25.5845 43.5908 25.8989 42.8833 25.8989C42.1646 25.8989 41.6929 25.5732 41.4121 24.877L37.4028 15.0615H37.313V24.6299C37.313 25.6294 36.7627 26.2134 35.8081 26.2134ZM55.8433 26.2134C54.7764 26.2134 54.1475 25.562 54.1475 24.4502V11.5576C54.1475 10.4458 54.7764 9.79443 55.8433 9.79443H60.7397C64.064 9.79443 66.355 12.0068 66.355 15.3423C66.355 18.6665 63.9854 20.8901 60.5713 20.8901H57.5391V24.4502C57.5391 25.562 56.9102 26.2134 55.8433 26.2134ZM57.5391 18.2397H59.8301C61.7729 18.2397 62.9072 17.2065 62.9072 15.3535C62.9072 13.5117 61.7842 12.4785 59.8413 12.4785H57.5391V18.2397ZM73.9355 26.2134C72.8687 26.2134 72.2397 25.562 72.2397 24.4502V12.6021H68.8931C67.9722 12.6021 67.3545 12.0742 67.3545 11.1982C67.3545 10.3223 67.9609 9.79443 68.8931 9.79443H78.9893C79.9102 9.79443 80.5166 10.3223 80.5166 11.1982C80.5166 12.0742 79.8989 12.6021 78.9893 12.6021H75.6313V24.4502C75.6313 25.562 75.0024 26.2134 73.9355 26.2134ZM88.6138 26.2695C83.8071 26.2695 80.7974 23.0576 80.7974 17.9028C80.7974 12.7368 83.8071 9.51367 88.6138 9.51367C93.4092 9.51367 96.4302 12.7368 96.4302 17.9028C96.4302 23.0576 93.4092 26.2695 88.6138 26.2695ZM88.6138 23.4395C91.2642 23.4395 92.96 21.2944 92.96 17.9028C92.96 14.5 91.2642 12.3438 88.6138 12.3438C85.9634 12.3438 84.2563 14.5 84.2563 17.9028C84.2563 21.2944 85.9521 23.4395 88.6138 23.4395ZM100.249 26.2134C99.2266 26.2134 98.6201 25.5957 98.6201 24.5176V11.2656C98.6201 10.1875 99.249 9.56982 100.327 9.56982C101.023 9.56982 101.495 9.85059 102.012 10.5581L109.02 20.3511H109.109V11.2769C109.109 10.1875 109.716 9.56982 110.738 9.56982C111.76 9.56982 112.355 10.1875 112.355 11.2769V24.5625C112.355 25.6182 111.76 26.2134 110.693 26.2134C109.963 26.2134 109.514 25.9551 108.997 25.2363L101.967 15.3872H101.866V24.5176C101.866 25.5957 101.259 26.2134 100.249 26.2134Z" fill="#313131"/>
</g>
</g>
<defs>
<filter id="filter0_d_83_658" x="-2.36719" y="9.51367" width="118.719" height="24.7559" filterUnits="userSpaceOnUse" color-interpolation-filters="sRGB">
<feFlood flood-opacity="0" result="BackgroundImageFix"/>
<feColorMatrix in="SourceAlpha" type="matrix" values="0 0 0 0 0 0 0 0 0 0 0 0 0 0 0 0 0 0 127 0" result="hardAlpha"/>
<feOffset dy="4"/>
<feGaussianBlur stdDeviation="2"/>
<feComposite in2="hardAlpha" operator="out"/>
<feColorMatrix type="matrix" values="0 0 0 0 0 0 0 0 0 0 0 0 0 0 0 0 0 0 0.25 0"/>
<feBlend mode="normal" in2="BackgroundImageFix" result="effect1_dropShadow_83_658"/>
<feBlend mode="normal" in="SourceGraphic" in2="effect1_dropShadow_83_658" result="shape"/>
</filter>
<clipPath id="clip0_83_658">
<rect width="114" height="35" fill="white"/>
</clipPath>
</defs>
</svg>
